/* XPM */
static char *TOGSPECIALCODE_xpm[] = {
/* width height num_colors chars_per_pixel */
"    24    24       16            1",
/* colors */
"` c #000000",
". c #800000",
"# c #008000",
"a c #808000",
"b c #000080",
"c c #800080",
"d c #008080",
"e c #808080",
"f c #c0c0c0",
"g c #ff0000",
"h c #00ff00",
"i c #ffff00",
"j c #0000ff",
"k c #ff00ff",
"l c #00ffff",
"m c #ffffff",
/* pixels */
"aaaaaaaaaaaaaaaaaaaaaaaa",
"aamjaaaamjaaaamjaaaamjaa",
"abmmbaabmmbaabmmbaabmmba",
"aabbaaaabbaaaabbaaaabbaa",
"aaaaaaaaaaaaaaaaaaaaaaaa",
"aaaaaaaaaaaaaaaaaaaaaaaa",
"aaaaaaaaaaaaaaaaaaaaaaaa",
"aaaaaaaaaaaaaaaaaaaaaaaa",
"aaaaaaaaaaaaaaaaaaaaaaaa",
"aaa``aa```aa````aa```aaa",
"aa`aa`a`aa`a`aaaa`aaa`aa",
"aa``aaa`aa`a```aa`aaaaaa",
"aaaa``a```aa`aaaa`aaaaaa",
"aa`aa`a`aaaa`aaaa`aaa`aa",
"aaa``aa`aaaa````aa```aaa",
"aaaaaaaaaaaaaaaaaaaaaaaa",
"aaaaaaaaaaaaaaaaaaaaaaaa",
"aaaaaaaaaaaaaaaaaaaaaaaa",
"aaaaaaaaaaaaaaaaaaaaaaaa",
"aaaaaaaaaaaaaaaaaaaaaaaa",
"aamjaaaamjaaaamjaaaamjaa",
"abmmbaabmmbaabmmbaabmmba",
"aabbaaaabbaaaabbaaaabbaa",
"aaaaaaaaaaaaaaaaaaaaaaaa"
};
